<svg xmlns="http://www.w3.org/2000/svg" version="1.1" xmlns:xlink="http://www.w3.org/1999/xlink" xmlns:svgjs="http://svgjs.com/svgjs" width="24" height="24"><svg version="1.1" id="SvgjsSvg1000" xmlns="http://www.w3.org/2000/svg" xmlns:xlink="http://www.w3.org/1999/xlink" x="0px" y="0px" viewBox="0 0 24 24" style="enable-background:new 0 0 24 24;" xml:space="preserve">
<style type="text/css">
	.st0{fill:#6B6EF8;}
</style>
<path class="st0" d="M17.13,15.69c-0.4-3.65-3.69-6.28-7.34-5.87c-2.54,0.28-4.7,2-5.54,4.41C1.81,14.43,0,16.57,0.2,19.01
	c0.19,2.3,2.11,4.07,4.42,4.07h12.55c2.04,0,3.69-1.65,3.69-3.69s-1.65-3.69-3.69-3.69H17.13z"></path>
<path class="st0" d="M15.69,1.66c0-0.41-0.33-0.74-0.74-0.74c-0.41,0-0.74,0.33-0.74,0.74v1.48c0,0.41,0.33,0.74,0.74,0.74
	c0.41,0,0.74-0.33,0.74-0.74V1.66z M21.22,4.56c0.29-0.28,0.3-0.75,0.02-1.04c-0.28-0.29-0.75-0.3-1.04-0.02
	c-0.01,0.01-0.01,0.01-0.02,0.02l-1.05,1.04c-0.29,0.29-0.29,0.76,0,1.05c0.29,0.29,0.76,0.29,1.05,0l0,0L21.22,4.56z M9.73,3.52
	C9.44,3.24,8.97,3.24,8.69,3.54c-0.28,0.29-0.28,0.74,0,1.03l1.04,1.05c0.29,0.29,0.76,0.29,1.05,0c0.29-0.29,0.29-0.76,0-1.05
	C10.78,4.56,9.73,3.52,9.73,3.52z M12.29,8.5c0.71-1.47,2.47-2.09,3.94-1.38c1.47,0.71,2.09,2.47,1.38,3.94
	c-0.12,0.25-0.27,0.47-0.45,0.68c0.29,0.41,0.55,0.86,0.76,1.33c1.82-1.64,1.96-4.44,0.32-6.26S13.8,4.86,11.98,6.5
	c-0.55,0.49-0.96,1.12-1.21,1.81C11.3,8.33,11.8,8.39,12.29,8.5z M18.92,14.52c0.89,0.32,1.66,0.87,2.25,1.58
	c0.32-0.26,0.37-0.72,0.11-1.04c-0.02-0.02-0.03-0.04-0.05-0.06l-1.04-1.04c-0.29-0.29-0.76-0.29-1.04,0
	C18.98,14.11,18.91,14.31,18.92,14.52z M21.6,9.05c-0.41,0-0.74,0.33-0.74,0.74c0,0.41,0.33,0.74,0.74,0.74h1.48
	c0.41,0,0.74-0.33,0.74-0.74c0-0.41-0.33-0.74-0.74-0.74H21.6z"></path>
</svg><style>@media (prefers-color-scheme: light) { :root { filter: none; } }
</style></svg>